<svg width="472" height="74" viewBox="0 0 472 74" fill="none" xmlns="http://www.w3.org/2000/svg">
<path d="M68 21.172C68.9694 20.9795 69.8742 20.8512 70.7144 20.787C71.6192 20.6587 72.5886 20.5946 73.6226 20.5946C74.592 20.5946 75.5291 20.6587 76.4339 20.787C77.4033 20.9153 78.3404 21.0757 79.2452 21.2682C79.4391 21.589 79.6007 22.0702 79.7299 22.7118C79.9238 23.2892 80.0854 23.9307 80.2146 24.6365C80.3439 25.2781 80.4408 25.9517 80.5055 26.6574C80.6347 27.299 80.7317 27.8444 80.7963 28.2935C82.2181 26.3046 83.963 24.5402 86.0311 23.0005C88.0992 21.3965 90.6843 20.5946 93.7865 20.5946C94.4327 20.5946 95.176 20.6266 96.0161 20.6908C96.8563 20.755 97.4702 20.8512 97.858 20.9795C97.9873 21.6211 98.0842 22.3589 98.1488 23.1929C98.2135 24.027 98.2458 24.8931 98.2458 25.7913C98.2458 26.882 98.1812 28.0689 98.0519 29.3521C97.9873 30.6352 97.8257 31.8542 97.5672 33.009C96.8563 32.8807 96.0484 32.8166 95.1437 32.8166C94.3035 32.8166 93.7865 32.8166 93.5926 32.8166C92.4939 32.8166 91.266 32.9449 89.9088 33.2015C88.5516 33.394 87.2591 33.9714 86.0311 34.9338C84.8032 35.8961 83.7692 37.3397 82.929 39.2644C82.1535 41.1891 81.7657 43.8837 81.7657 47.3482V71.0224C80.6024 71.2148 79.4391 71.3431 78.2758 71.4073C77.1125 71.4715 75.9815 71.5035 74.8829 71.5035C73.7842 71.5035 72.6532 71.4715 71.4899 71.4073C70.3912 71.3431 69.2279 71.2148 68 71.0224V21.172Z" fill="white"/>
<path d="M120.998 72.081C116.926 72.081 113.371 71.4394 110.334 70.1562C107.361 68.8089 104.873 66.9804 102.869 64.6708C100.931 62.2969 99.4442 59.5382 98.4101 56.3944C97.4407 53.2507 96.956 49.8504 96.956 46.1934C96.956 42.5364 97.4407 39.104 98.4101 35.8961C99.4442 32.6883 100.931 29.9295 102.869 27.6198C104.873 25.246 107.361 23.3854 110.334 22.0381C113.371 20.6908 116.926 20.0171 120.998 20.0171C125.069 20.0171 128.624 20.6908 131.661 22.0381C134.699 23.3854 137.219 25.246 139.223 27.6198C141.226 29.9295 142.712 32.6883 143.682 35.8961C144.651 39.104 145.136 42.5364 145.136 46.1934C145.136 49.8504 144.651 53.2507 143.682 56.3944C142.712 59.5382 141.226 62.2969 139.223 64.6708C137.219 66.9804 134.699 68.8089 131.661 70.1562C128.624 71.4394 125.069 72.081 120.998 72.081ZM120.998 61.6874C124.617 61.6874 127.202 60.3722 128.753 57.7418C130.369 55.0471 131.176 51.1977 131.176 46.1934C131.176 41.1891 130.369 37.3717 128.753 34.7413C127.202 32.0467 124.617 30.6994 120.998 30.6994C117.443 30.6994 114.858 32.0467 113.242 34.7413C111.691 37.3717 110.916 41.1891 110.916 46.1934C110.916 51.1977 111.691 55.0471 113.242 57.7418C114.858 60.3722 117.443 61.6874 120.998 61.6874Z" fill="white"/>
<path d="M183.823 59.1853C184.599 60.4684 185.245 61.9762 185.762 63.7084C186.279 65.3765 186.538 67.3654 186.538 69.675C183.952 70.7016 181.529 71.3431 179.267 71.5998C177.005 71.9206 174.646 72.081 172.19 72.081C167.989 72.081 164.338 71.4394 161.236 70.1562C158.134 68.8089 155.549 66.9804 153.481 64.6708C151.477 62.3611 149.958 59.6344 148.924 56.4907C147.89 53.2828 147.373 49.8183 147.373 46.0972C147.373 42.4402 147.858 39.0398 148.827 35.8961C149.861 32.7524 151.38 29.9936 153.384 27.6198C155.452 25.246 158.004 23.3854 161.042 22.0381C164.079 20.6908 167.602 20.0171 171.609 20.0171C173.03 20.0171 174.323 20.0492 175.486 20.1134C176.714 20.1775 177.877 20.3059 178.976 20.4983C180.075 20.6908 181.174 20.9474 182.272 21.2682C183.371 21.589 184.599 22.006 185.956 22.5193C185.956 23.9949 185.762 25.663 185.374 27.5236C184.987 29.32 184.373 31.0522 183.532 32.7203C181.594 32.0788 179.881 31.6617 178.395 31.4693C176.973 31.2126 175.325 31.0843 173.45 31.0843C169.444 31.0843 166.406 32.3995 164.338 35.03C162.335 37.5963 161.333 41.2854 161.333 46.0972C161.333 51.2939 162.431 55.0792 164.629 57.453C166.826 59.8269 169.799 61.0138 173.547 61.0138C174.517 61.0138 175.389 61.0138 176.165 61.0138C177.005 60.9496 177.813 60.8534 178.588 60.7251C179.364 60.5968 180.139 60.4043 180.915 60.1477C181.755 59.891 182.725 59.5702 183.823 59.1853Z" fill="white"/>
<path d="M189.505 0.577422C191.702 0.192474 193.964 0 196.291 0C198.617 0 200.912 0.192474 203.174 0.577422V70.9261C200.912 71.3111 198.617 71.5035 196.291 71.5035C193.964 71.5035 191.702 71.3111 189.505 70.9261V0.577422ZM203.113 44.8461L215.521 21.172C218.042 20.787 220.594 20.5946 223.179 20.5946C225.635 20.5946 228.027 20.787 230.353 21.172L217.557 44.1724L232.486 70.9261C229.836 71.3111 227.283 71.5035 224.827 71.5035C222.565 71.5035 220.174 71.3111 217.654 70.9261L203.113 44.8461Z" fill="white"/>
<path d="M242.501 50.2353C242.759 54.0848 244.117 56.8756 246.572 58.6079C249.028 60.3401 252.26 61.2063 256.267 61.2063C258.464 61.2063 260.694 61.0138 262.955 60.6288C265.282 60.1797 267.479 59.5702 269.548 58.8004C270.258 60.0835 270.872 61.6233 271.389 63.4197C271.906 65.2161 272.197 67.1408 272.262 69.1939C267.221 71.1186 261.534 72.081 255.2 72.081C250.547 72.081 246.54 71.4394 243.179 70.1562C239.883 68.8731 237.169 67.1087 235.036 64.8632C232.968 62.5536 231.417 59.8269 230.383 56.6832C229.414 53.5394 228.929 50.107 228.929 46.3859C228.929 42.7289 229.446 39.2965 230.48 36.0886C231.514 32.8807 233.033 30.0899 235.036 27.716C237.104 25.3422 239.625 23.4816 242.598 22.1343C245.635 20.7229 249.157 20.0171 253.164 20.0171C256.654 20.0171 259.756 20.6266 262.471 21.8456C265.185 23.0646 267.479 24.7327 269.354 26.8499C271.292 28.9671 272.747 31.5013 273.716 34.4526C274.685 37.3397 275.17 40.4513 275.17 43.7875C275.17 45.0065 275.105 46.2255 274.976 47.4445C274.912 48.5993 274.815 49.5296 274.685 50.2353H242.501ZM262.18 40.7079C262.051 37.6284 261.178 35.1583 259.563 33.2977C258.011 31.373 255.814 30.4107 252.971 30.4107C249.739 30.4107 247.283 31.3089 245.603 33.1053C243.923 34.9017 242.921 37.4359 242.598 40.7079H262.18Z" fill="white"/>
<path d="M281.522 31.5655H275.221L274.736 29.6408L292.864 6.6403H295.094V21.172H306.824C307.018 22.1343 307.147 23.0005 307.212 23.7704C307.276 24.5402 307.309 25.3422 307.309 26.1763C307.309 27.0745 307.276 27.9406 307.212 28.7746C307.147 29.6087 307.018 30.539 306.824 31.5655H295.094V51.1015C295.094 53.0903 295.255 54.6943 295.579 55.9133C295.902 57.1323 296.354 58.0946 296.936 58.8004C297.582 59.5061 298.358 59.9873 299.262 60.2439C300.167 60.5005 301.234 60.6288 302.461 60.6288C303.431 60.6288 304.368 60.5647 305.273 60.4364C306.242 60.2439 307.082 60.0835 307.793 59.9552C308.246 61.1742 308.569 62.4573 308.763 63.8046C308.957 65.0878 309.053 66.2426 309.053 67.2691C309.053 67.9749 309.021 68.5844 308.957 69.0976C308.957 69.5467 308.924 69.9958 308.86 70.4449C305.887 71.1507 302.817 71.5035 299.65 71.5035C293.769 71.5035 289.277 70.1562 286.175 67.4616C283.073 64.7028 281.522 60.2439 281.522 54.0848V31.5655Z" fill="white"/>
<path d="M312.234 0.384946C312.945 0.256632 313.721 0.160396 314.561 0.096235C315.466 0.0320783 316.274 0 316.985 0C317.695 0 318.471 0.0320783 319.311 0.096235C320.216 0.160396 321.024 0.256632 321.735 0.384946V56.0095C321.735 57.8059 321.896 59.2174 322.219 60.2439C322.543 61.2704 322.963 62.0724 323.48 62.6498C324.061 63.1631 324.708 63.5159 325.418 63.7084C326.194 63.8367 327.002 63.9009 327.842 63.9009C328.424 63.9009 329.07 63.8688 329.781 63.8046C330.556 63.7405 331.203 63.6442 331.72 63.5159C332.301 65.7614 332.592 68.1994 332.592 70.8299C331.687 71.1507 330.589 71.3431 329.296 71.4073C328.004 71.5356 326.808 71.5998 325.709 71.5998C323.835 71.5998 322.09 71.3752 320.474 70.9261C318.859 70.477 317.437 69.7392 316.209 68.7127C314.981 67.6862 314.012 66.3068 313.301 64.5745C312.59 62.8423 312.234 60.693 312.234 58.1267V0.384946Z" fill="white"/>
<path d="M361.757 47.7332C360.788 47.6049 359.56 47.4766 358.073 47.3482C356.587 47.2199 355.327 47.1558 354.293 47.1558C350.286 47.1558 347.216 47.8936 345.083 49.3692C343.015 50.8448 341.981 53.0903 341.981 56.1057C341.981 58.0305 342.337 59.5382 343.047 60.6288C343.758 61.7195 344.631 62.5536 345.665 63.131C346.764 63.7084 347.959 64.0613 349.252 64.1896C350.544 64.3179 351.772 64.3821 352.935 64.3821C354.422 64.3821 355.941 64.3179 357.492 64.1896C359.107 63.9971 360.529 63.7405 361.757 63.4197V47.7332ZM361.757 38.3983C361.757 34.613 360.788 31.9825 358.849 30.5069C356.91 29.0313 354.099 28.2935 350.415 28.2935C348.153 28.2935 346.02 28.4859 344.017 28.8709C342.078 29.1917 340.171 29.6408 338.297 30.2182C337.069 28.101 336.455 25.5668 336.455 22.6155C338.653 21.9098 341.076 21.3644 343.726 20.9795C346.376 20.5946 348.929 20.4021 351.384 20.4021C357.847 20.4021 362.759 21.8777 366.12 24.829C369.48 27.716 371.16 32.3675 371.16 38.7832V69.675C368.899 70.1883 366.152 70.7016 362.92 71.2148C359.689 71.7922 356.393 72.081 353.032 72.081C349.866 72.081 346.99 71.7922 344.405 71.2148C341.884 70.6374 339.719 69.7071 337.91 68.424C336.165 67.1408 334.807 65.5048 333.838 63.5159C332.869 61.527 332.384 59.1211 332.384 56.2982C332.384 53.5394 332.933 51.1335 334.032 49.0805C335.195 46.9633 336.746 45.231 338.685 43.8837C340.624 42.4723 342.854 41.4457 345.374 40.8042C347.895 40.0984 350.544 39.7456 353.323 39.7456C355.391 39.7456 357.072 39.8097 358.364 39.938C359.721 40.0022 360.852 40.0984 361.757 40.2268V38.3983Z" fill="white"/>
<path d="M379.75 21.5569C380.461 21.4286 381.139 21.3324 381.785 21.2682C382.496 21.2041 383.207 21.172 383.918 21.172C384.629 21.172 385.275 21.2041 385.857 21.2682C386.503 21.3324 387.182 21.4286 387.893 21.5569C388.087 22.5193 388.281 23.8345 388.474 25.5026C388.668 27.1065 388.765 28.4539 388.765 29.5445C389.412 28.4539 390.219 27.3632 391.189 26.2725C392.223 25.1818 393.386 24.2195 394.679 23.3854C395.971 22.4872 397.458 21.7815 399.138 21.2682C400.818 20.6908 402.66 20.4021 404.664 20.4021C410.351 20.4021 414.552 22.0381 417.266 25.3101C419.98 28.518 421.338 33.2977 421.338 39.6493V70.9261C420.627 71.0544 419.819 71.1507 418.914 71.2148C418.009 71.279 417.201 71.3111 416.491 71.3111C415.78 71.3111 414.972 71.279 414.067 71.2148C413.227 71.1507 412.451 71.0544 411.74 70.9261V42.2477C411.74 37.6925 411.03 34.3563 409.608 32.2391C408.186 30.0578 405.924 28.9671 402.822 28.9671C401.012 28.9671 399.3 29.2879 397.684 29.9295C396.068 30.5711 394.646 31.5655 393.418 32.9128C392.19 34.2601 391.189 36.0244 390.413 38.2058C389.702 40.323 389.347 42.8893 389.347 45.9047V70.9261C388.636 71.0544 387.828 71.1507 386.923 71.2148C386.083 71.279 385.308 71.3111 384.597 71.3111C383.886 71.3111 383.078 71.279 382.173 71.2148C381.268 71.1507 380.461 71.0544 379.75 70.9261V21.5569Z" fill="white"/>
<path d="M437.151 48.5993C437.28 53.9885 438.67 57.9342 441.32 60.4364C444.034 62.9385 448.009 64.1896 453.244 64.1896C457.832 64.1896 462.194 63.3876 466.331 61.7837C466.848 62.746 467.268 63.933 467.591 65.3444C467.914 66.6917 468.108 68.039 468.173 69.3863C466.04 70.2845 463.681 70.9582 461.096 71.4073C458.575 71.8564 455.764 72.081 452.662 72.081C448.138 72.081 444.26 71.4715 441.029 70.2525C437.797 68.9693 435.115 67.205 432.983 64.9595C430.915 62.6498 429.396 59.9552 428.426 56.8756C427.457 53.7319 426.972 50.2995 426.972 46.5784C426.972 42.9214 427.425 39.521 428.33 36.3773C429.299 33.1694 430.753 30.4107 432.692 28.101C434.631 25.7272 437.054 23.8666 439.963 22.5193C442.935 21.1078 446.425 20.4021 450.432 20.4021C453.857 20.4021 456.863 20.9795 459.448 22.1343C462.033 23.2892 464.198 24.8931 465.943 26.9462C467.688 28.935 469.013 31.3409 469.917 34.1639C470.822 36.9226 471.275 39.938 471.275 43.2101C471.275 44.1083 471.242 45.0706 471.178 46.0972C471.113 47.0595 471.048 47.8936 470.984 48.5993H437.151ZM461.774 41.4778C461.774 39.6814 461.516 37.9812 460.999 36.3773C460.546 34.7092 459.836 33.2657 458.866 32.0467C457.961 30.8277 456.766 29.8653 455.279 29.1596C453.857 28.3897 452.145 28.0048 450.141 28.0048C446.199 28.0048 443.162 29.1917 441.029 31.5655C438.961 33.9393 437.701 37.2434 437.248 41.4778H461.774Z" fill="white"/>
<path opacity="0.7" d="M26.1201 72.2526C32.8349 73.9955 36.6402 74.1342 43.5354 72.2526L52.243 46.1296L43.5354 20.0067C36.7235 18.3677 32.9347 18.3844 26.1201 20.0067L34.8277 46.1296L26.1201 72.2526Z" fill="#2765F5"/>
<path d="M0 72.2249C6.69956 73.967 10.4962 74.1056 17.3757 72.2249L26.0635 46.1155L17.3757 20.006C10.5793 18.368 6.79911 18.3846 0 20.006L8.68784 46.1155L0 72.2249Z" fill="#2765F5"/>
</svg>
